<mxfile host="app.diagrams.net" modified="2023-10-16T12:44:52.970Z" agent="Mozilla/5.0 (Windows NT 10.0; Win64; x64) AppleWebKit/537.36 (KHTML, like Gecko) Chrome/118.0.0.0 Safari/537.36" etag="PCQ0Brc4oCP-ks7DAxly" version="22.0.4" type="github">
  <diagram name="第 1 页" id="fbUBrH4WLsbyT03vCSBO">
    <mxGraphModel dx="1838" dy="989" grid="1" gridSize="10" guides="1" tooltips="1" connect="1" arrows="0" fold="1" page="1" pageScale="1" pageWidth="827" pageHeight="1169" math="0" shadow="0">
      <root>
        <mxCell id="0" />
        <mxCell id="1" parent="0" />
        <mxCell id="l20layDVjoIPyv2NFqIs-1" value="" style="rounded=0;whiteSpace=wrap;html=1;strokeColor=none;" vertex="1" parent="1">
          <mxGeometry x="20" y="260" width="680" height="500" as="geometry" />
        </mxCell>
        <mxCell id="G4seUUR9IQsw61A7sR9n-4" style="rounded=0;orthogonalLoop=1;jettySize=auto;html=1;endArrow=openThin;endFill=0;fontFamily=Times New Roman;" parent="1" source="G4seUUR9IQsw61A7sR9n-1" target="G4seUUR9IQsw61A7sR9n-3" edge="1">
          <mxGeometry relative="1" as="geometry" />
        </mxCell>
        <mxCell id="G4seUUR9IQsw61A7sR9n-1" value="IBD patients from MIMIC-IV based on ICD code (version 9)" style="rounded=1;whiteSpace=wrap;html=1;fontFamily=Times New Roman;" parent="1" vertex="1">
          <mxGeometry x="240" y="280" width="240" height="60" as="geometry" />
        </mxCell>
        <mxCell id="G4seUUR9IQsw61A7sR9n-3" value="Final Cohort" style="rounded=1;whiteSpace=wrap;html=1;fontFamily=Times New Roman;" parent="1" vertex="1">
          <mxGeometry x="240" y="580" width="240" height="60" as="geometry" />
        </mxCell>
        <mxCell id="G4seUUR9IQsw61A7sR9n-5" value="Only include adult patients" style="rounded=1;whiteSpace=wrap;html=1;fontFamily=Times New Roman;" parent="1" vertex="1">
          <mxGeometry x="440" y="380" width="190" height="60" as="geometry" />
        </mxCell>
        <mxCell id="G4seUUR9IQsw61A7sR9n-6" value="Only include patients whose data missing is less than 5%.&amp;nbsp;" style="rounded=1;whiteSpace=wrap;html=1;fontFamily=Times New Roman;" parent="1" vertex="1">
          <mxGeometry x="440" y="480" width="190" height="60" as="geometry" />
        </mxCell>
        <mxCell id="G4seUUR9IQsw61A7sR9n-9" value="" style="endArrow=openThin;html=1;rounded=0;entryX=0;entryY=0.5;entryDx=0;entryDy=0;endFill=0;fontFamily=Times New Roman;" parent="1" target="G4seUUR9IQsw61A7sR9n-5" edge="1">
          <mxGeometry width="50" height="50" relative="1" as="geometry">
            <mxPoint x="360" y="410" as="sourcePoint" />
            <mxPoint x="470" y="510" as="targetPoint" />
          </mxGeometry>
        </mxCell>
        <mxCell id="G4seUUR9IQsw61A7sR9n-10" value="" style="endArrow=openThin;html=1;rounded=0;entryX=0;entryY=0.5;entryDx=0;entryDy=0;endFill=0;fontFamily=Times New Roman;" parent="1" target="G4seUUR9IQsw61A7sR9n-6" edge="1">
          <mxGeometry width="50" height="50" relative="1" as="geometry">
            <mxPoint x="360" y="509.5" as="sourcePoint" />
            <mxPoint x="440" y="509.5" as="targetPoint" />
          </mxGeometry>
        </mxCell>
        <mxCell id="G4seUUR9IQsw61A7sR9n-13" value="Training Goup" style="rounded=1;whiteSpace=wrap;html=1;fontFamily=Times New Roman;" parent="1" vertex="1">
          <mxGeometry x="130" y="680" width="210" height="60" as="geometry" />
        </mxCell>
        <mxCell id="G4seUUR9IQsw61A7sR9n-14" value="Tesing Group" style="rounded=1;whiteSpace=wrap;html=1;fontFamily=Times New Roman;" parent="1" vertex="1">
          <mxGeometry x="380" y="680" width="210" height="60" as="geometry" />
        </mxCell>
        <mxCell id="G4seUUR9IQsw61A7sR9n-15" value="" style="endArrow=openThin;html=1;rounded=0;exitX=0.5;exitY=1;exitDx=0;exitDy=0;entryX=0.5;entryY=0;entryDx=0;entryDy=0;endFill=0;fontFamily=Times New Roman;" parent="1" source="G4seUUR9IQsw61A7sR9n-3" target="G4seUUR9IQsw61A7sR9n-13" edge="1">
          <mxGeometry width="50" height="50" relative="1" as="geometry">
            <mxPoint x="420" y="750" as="sourcePoint" />
            <mxPoint x="470" y="700" as="targetPoint" />
          </mxGeometry>
        </mxCell>
        <mxCell id="G4seUUR9IQsw61A7sR9n-16" value="" style="endArrow=openThin;html=1;rounded=0;exitX=0.5;exitY=1;exitDx=0;exitDy=0;entryX=0.5;entryY=0;entryDx=0;entryDy=0;endFill=0;fontFamily=Times New Roman;" parent="1" source="G4seUUR9IQsw61A7sR9n-3" target="G4seUUR9IQsw61A7sR9n-14" edge="1">
          <mxGeometry width="50" height="50" relative="1" as="geometry">
            <mxPoint x="400" y="920" as="sourcePoint" />
            <mxPoint x="450" y="870" as="targetPoint" />
          </mxGeometry>
        </mxCell>
      </root>
    </mxGraphModel>
  </diagram>
</mxfile>
